# xmcd
#
# Track frame offsets: 
#        150
#        12686
#        29064
#        50792
#        67239
#        83179
#        99980
#        121240
#        135150
#        147640
#        162380
#
# Disc length: 2385 seconds
#
# Revision: 0
# Processed by: cddbd v1.5.2PL0 Copyright (c) Steve Scherf et al.
# Submitted via: ExactAudioCopyFreeDBPlugin 1.0
#
DISCID=a3094f0b
DTITLE=Kate Campbell - 1000 Pound Machine
DYEAR=2012
DGENRE=Folk
TTITLE0=1000 Pound Machine
TTITLE1=Wait For Another Day
TTITLE2=Montgomery To Mobile
TTITLE3=Red Clay After Rain
TTITLE4=Spoonerville
TTITLE5=The Occasional Wailer
TTITLE6=Alabama Department Of Corrections Meditation Blues
TTITLE7=I Will Be Your Rest
TTITLE8=God Bless Your Arthur Blessitt
TTITLE9=Walk With Me
TTITLE10=1000 Pond Machine (Reprise)
EXTD=
EXTT0=
EXTT1=
EXTT2=
EXTT3=
EXTT4=
EXTT5=
EXTT6=
EXTT7=
EXTT8=
EXTT9=
EXTT10=
PLAYORDER=
